<svg xmlns="http://www.w3.org/2000/svg" xmlns:xlink="http://www.w3.org/1999/xlink" width="500" zoomAndPan="magnify" viewBox="0 0 375 374.999991" height="500" preserveAspectRatio="xMidYMid meet" version="1.0"><defs><g/><clipPath id="37ec718adb"><path d="M 131.152344 96.890625 L 243 96.890625 L 243 168.890625 L 131.152344 168.890625 Z M 131.152344 96.890625 " clip-rule="nonzero"/></clipPath></defs><rect x="-37.5" width="450" fill="#ffffff" y="-37.499999" height="449.999989" fill-opacity="1"/><rect x="-37.5" width="450" fill="#ffffff" y="-37.499999" height="449.999989" fill-opacity="1"/><rect x="-37.5" width="450" fill="#1c7542" y="-37.499999" height="449.999989" fill-opacity="1"/><g fill="#ffffff" fill-opacity="1"><g transform="translate(78.195668, 207.315997)"><g><path d="M 20.09375 0 C 21.84375 0 23.378906 -0.632812 24.703125 -1.90625 C 25.960938 -3.195312 26.601562 -4.738281 26.625 -6.53125 L 26.625 -8.640625 C 26.625 -9.273438 26.394531 -9.820312 25.9375 -10.28125 C 25.476562 -10.738281 24.925781 -10.96875 24.28125 -10.96875 L 14.375 -10.96875 L 14.375 -7.703125 L 23.359375 -7.703125 L 23.359375 -6.53125 C 23.359375 -5.65625 23.035156 -4.882812 22.390625 -4.21875 C 21.722656 -3.582031 20.957031 -3.265625 20.09375 -3.265625 L 8.671875 -3.265625 C 7.765625 -3.265625 6.992188 -3.582031 6.359375 -4.21875 C 5.722656 -4.851562 5.40625 -5.625 5.40625 -6.53125 L 5.40625 -14.015625 C 5.40625 -14.910156 5.722656 -15.675781 6.359375 -16.3125 C 6.992188 -16.957031 7.765625 -17.28125 8.671875 -17.28125 L 20.09375 -17.28125 C 20.988281 -17.28125 21.753906 -16.957031 22.390625 -16.3125 C 23.035156 -15.675781 23.359375 -14.910156 23.359375 -14.015625 L 26.625 -14.015625 C 26.625 -15.816406 25.984375 -17.351562 24.703125 -18.625 C 23.429688 -19.894531 21.894531 -20.53125 20.09375 -20.53125 L 8.671875 -20.53125 C 6.867188 -20.53125 5.328125 -19.894531 4.046875 -18.625 C 2.773438 -17.351562 2.140625 -15.816406 2.140625 -14.015625 L 2.140625 -6.53125 C 2.140625 -4.726562 2.773438 -3.1875 4.046875 -1.90625 C 5.328125 -0.632812 6.867188 0 8.671875 0 Z M 20.09375 0 "/></g></g></g><g fill="#ffffff" fill-opacity="1"><g transform="translate(106.840311, 207.315997)"><g><path d="M 25.703125 0 L 2.859375 0 L 2.859375 -20.53125 L 25.703125 -20.53125 L 25.703125 -17.28125 L 6.125 -17.28125 L 6.125 -11.90625 L 23.390625 -11.90625 L 23.390625 -8.640625 L 6.125 -8.640625 L 6.125 -3.265625 L 25.703125 -3.265625 Z M 25.703125 0 "/></g></g></g><g fill="#ffffff" fill-opacity="1"><g transform="translate(134.568694, 207.315997)"><g><path d="M 20.09375 0 C 21.894531 0 23.429688 -0.632812 24.703125 -1.90625 C 25.984375 -3.1875 26.625 -4.726562 26.625 -6.53125 L 26.625 -14.015625 C 26.625 -15.816406 25.984375 -17.351562 24.703125 -18.625 C 23.429688 -19.894531 21.894531 -20.53125 20.09375 -20.53125 L 8.671875 -20.53125 C 6.867188 -20.53125 5.328125 -19.894531 4.046875 -18.625 C 2.773438 -17.351562 2.140625 -15.816406 2.140625 -14.015625 L 2.140625 -6.53125 C 2.140625 -4.726562 2.773438 -3.1875 4.046875 -1.90625 C 5.328125 -0.632812 6.867188 0 8.671875 0 Z M 20.09375 -3.265625 L 8.671875 -3.265625 C 7.765625 -3.265625 6.992188 -3.582031 6.359375 -4.21875 C 5.722656 -4.851562 5.40625 -5.625 5.40625 -6.53125 L 5.40625 -14.015625 C 5.40625 -14.910156 5.722656 -15.675781 6.359375 -16.3125 C 6.992188 -16.957031 7.765625 -17.28125 8.671875 -17.28125 L 20.09375 -17.28125 C 20.988281 -17.28125 21.753906 -16.957031 22.390625 -16.3125 C 23.035156 -15.675781 23.359375 -14.910156 23.359375 -14.015625 L 23.359375 -6.53125 C 23.359375 -5.625 23.035156 -4.851562 22.390625 -4.21875 C 21.753906 -3.582031 20.988281 -3.265625 20.09375 -3.265625 Z M 20.09375 -3.265625 "/></g></g></g><g fill="#ffffff" fill-opacity="1"><g transform="translate(163.213339, 207.315997)"><g><path d="M 21.71875 0 L 7.046875 0 C 5.691406 0 4.535156 -0.472656 3.578125 -1.421875 C 2.617188 -2.378906 2.140625 -3.535156 2.140625 -4.890625 L 5.40625 -4.890625 C 5.40625 -4.441406 5.566406 -4.054688 5.890625 -3.734375 C 6.210938 -3.421875 6.597656 -3.265625 7.046875 -3.265625 L 21.71875 -3.265625 C 22.164062 -3.265625 22.550781 -3.421875 22.875 -3.734375 C 23.195312 -4.054688 23.359375 -4.441406 23.359375 -4.890625 L 23.359375 -7 C 23.359375 -7.457031 23.195312 -7.84375 22.875 -8.15625 C 22.550781 -8.476562 22.164062 -8.640625 21.71875 -8.640625 L 7.046875 -8.640625 C 5.691406 -8.640625 4.535156 -9.117188 3.578125 -10.078125 C 2.617188 -11.035156 2.140625 -12.1875 2.140625 -13.53125 L 2.140625 -15.65625 C 2.140625 -17 2.617188 -18.144531 3.578125 -19.09375 C 4.535156 -20.050781 5.691406 -20.53125 7.046875 -20.53125 L 21.71875 -20.53125 C 23.070312 -20.53125 24.226562 -20.050781 25.1875 -19.09375 C 26.144531 -18.144531 26.625 -17 26.625 -15.65625 L 23.359375 -15.65625 C 23.359375 -16.101562 23.195312 -16.484375 22.875 -16.796875 C 22.550781 -17.109375 22.164062 -17.265625 21.71875 -17.265625 L 7.046875 -17.265625 C 6.597656 -17.265625 6.210938 -17.109375 5.890625 -16.796875 C 5.566406 -16.484375 5.40625 -16.101562 5.40625 -15.65625 L 5.40625 -13.53125 C 5.40625 -13.082031 5.566406 -12.695312 5.890625 -12.375 C 6.210938 -12.0625 6.597656 -11.90625 7.046875 -11.90625 L 21.71875 -11.90625 C 23.070312 -11.90625 24.226562 -11.425781 25.1875 -10.46875 C 26.144531 -9.507812 26.625 -8.351562 26.625 -7 L 26.625 -4.890625 C 26.625 -3.535156 26.144531 -2.378906 25.1875 -1.421875 C 24.226562 -0.472656 23.070312 0 21.71875 0 Z M 21.71875 0 "/></g></g></g><g fill="#ffffff" fill-opacity="1"><g transform="translate(191.857979, 207.315997)"><g><path d="M 12.984375 0 L 9.71875 0 L 9.71875 -17.28125 L 0.421875 -17.28125 L 0.421875 -20.53125 L 22.296875 -20.53125 L 22.296875 -17.28125 L 12.984375 -17.28125 Z M 12.984375 0 "/></g></g></g><g fill="#ffffff" fill-opacity="1"><g transform="translate(214.461032, 207.315997)"><g><path d="M 27.34375 0 L 24.078125 0 L 24.078125 -5.78125 C 24.078125 -6.226562 23.914062 -6.613281 23.59375 -6.9375 C 23.269531 -7.257812 22.882812 -7.421875 22.4375 -7.421875 L 6.125 -7.421875 L 6.125 0 L 2.859375 0 L 2.859375 -20.53125 L 22.4375 -20.53125 C 23.78125 -20.53125 24.929688 -20.050781 25.890625 -19.09375 C 26.859375 -18.144531 27.34375 -17 27.34375 -15.65625 L 27.34375 -12.3125 C 27.34375 -11.050781 26.921875 -9.960938 26.078125 -9.046875 C 26.921875 -8.117188 27.34375 -7.03125 27.34375 -5.78125 Z M 22.4375 -10.6875 C 22.882812 -10.6875 23.269531 -10.84375 23.59375 -11.15625 C 23.914062 -11.476562 24.078125 -11.863281 24.078125 -12.3125 L 24.078125 -15.65625 C 24.078125 -16.101562 23.914062 -16.484375 23.59375 -16.796875 C 23.269531 -17.117188 22.882812 -17.28125 22.4375 -17.28125 L 6.125 -17.28125 L 6.125 -10.6875 Z M 22.4375 -10.6875 "/></g></g></g><g fill="#ffffff" fill-opacity="1"><g transform="translate(243.8215, 207.315997)"><g><path d="M 29.9375 0 L 25.984375 0 L 22.984375 -4.453125 L 7.390625 -4.453125 L 4.375 0 L 0.421875 0 L 14.328125 -20.53125 L 16.046875 -20.53125 Z M 20.78125 -7.71875 L 15.171875 -16 L 9.578125 -7.71875 Z M 20.78125 -7.71875 "/></g></g></g><g fill="#ffffff" fill-opacity="1"><g transform="translate(274.069594, 207.315997)"><g><path d="M 12.984375 0 L 9.71875 0 L 9.71875 -17.28125 L 0.421875 -17.28125 L 0.421875 -20.53125 L 22.296875 -20.53125 L 22.296875 -17.28125 L 12.984375 -17.28125 Z M 12.984375 0 "/></g></g></g><g fill="#ffffff" fill-opacity="1"><g transform="translate(135.815546, 234.495395)"><g><path d="M 7.90625 -8.234375 L 4.828125 -8.234375 L 4.828125 0 L 3.1875 0 L 3.1875 -8.234375 L 0.125 -8.234375 L 0.125 -9.71875 L 7.90625 -9.71875 Z M 7.90625 -8.234375 "/></g></g></g><g fill="#ffffff" fill-opacity="1"><g transform="translate(143.849207, 234.495395)"><g><path d="M 2.78125 -7.375 L 2.78125 -5.90625 C 3.28125 -6.925781 4.128906 -7.4375 5.328125 -7.4375 L 5.328125 -5.90625 C 4.597656 -5.945312 4.003906 -5.773438 3.546875 -5.390625 C 3.097656 -5.015625 2.84375 -4.503906 2.78125 -3.859375 L 2.78125 0 L 1.171875 0 L 1.171875 -7.375 Z M 2.78125 -7.375 "/></g></g></g><g fill="#ffffff" fill-opacity="1"><g transform="translate(149.31598, 234.495395)"><g><path d="M 5.609375 0 L 5.609375 -0.90625 C 5.078125 -0.257812 4.257812 0.0625 3.15625 0.0625 C 2.375 0.0625 1.742188 -0.148438 1.265625 -0.578125 C 0.796875 -1.003906 0.5625 -1.550781 0.5625 -2.21875 C 0.5625 -2.894531 0.804688 -3.429688 1.296875 -3.828125 C 1.796875 -4.222656 2.484375 -4.425781 3.359375 -4.4375 L 5.59375 -4.4375 L 5.59375 -4.65625 C 5.59375 -5.132812 5.441406 -5.5 5.140625 -5.75 C 4.835938 -6.007812 4.398438 -6.140625 3.828125 -6.140625 C 3.117188 -6.140625 2.394531 -5.890625 1.65625 -5.390625 L 1 -6.5 C 1.5625 -6.832031 2.066406 -7.070312 2.515625 -7.21875 C 2.960938 -7.363281 3.515625 -7.4375 4.171875 -7.4375 C 5.117188 -7.4375 5.847656 -7.207031 6.359375 -6.75 C 6.878906 -6.289062 7.144531 -5.65625 7.15625 -4.84375 L 7.171875 0 Z M 3.5 -1.1875 C 4.0625 -1.1875 4.535156 -1.316406 4.921875 -1.578125 C 5.316406 -1.847656 5.539062 -2.1875 5.59375 -2.59375 L 5.59375 -3.28125 L 3.59375 -3.28125 C 3.0625 -3.28125 2.671875 -3.203125 2.421875 -3.046875 C 2.179688 -2.890625 2.0625 -2.640625 2.0625 -2.296875 C 2.0625 -1.960938 2.1875 -1.691406 2.4375 -1.484375 C 2.695312 -1.285156 3.050781 -1.1875 3.5 -1.1875 Z M 3.5 -1.1875 "/></g></g></g><g fill="#ffffff" fill-opacity="1"><g transform="translate(157.446767, 234.495395)"><g><path d="M 4.515625 0 L 2.875 0 L 0.015625 -7.375 L 1.671875 -7.375 L 3.734375 -1.5625 L 5.765625 -7.375 L 7.359375 -7.375 Z M 4.515625 0 "/></g></g></g><g fill="#ffffff" fill-opacity="1"><g transform="translate(164.731171, 234.495395)"><g><path d="M 4.21875 -7.4375 C 5.488281 -7.4375 6.40625 -7.050781 6.96875 -6.28125 C 7.539062 -5.519531 7.773438 -4.453125 7.671875 -3.078125 L 2.09375 -3.078125 C 2.226562 -2.503906 2.5 -2.050781 2.90625 -1.71875 C 3.3125 -1.394531 3.804688 -1.234375 4.390625 -1.234375 C 5.222656 -1.234375 5.914062 -1.519531 6.46875 -2.09375 L 7.3125 -1.1875 C 6.550781 -0.351562 5.535156 0.0625 4.265625 0.0625 C 3.117188 0.0625 2.203125 -0.28125 1.515625 -0.96875 C 0.828125 -1.664062 0.484375 -2.566406 0.484375 -3.671875 C 0.484375 -4.785156 0.828125 -5.6875 1.515625 -6.375 C 2.210938 -7.070312 3.113281 -7.425781 4.21875 -7.4375 Z M 2.0625 -4.25 L 6.28125 -4.25 C 6.257812 -4.84375 6.0625 -5.304688 5.6875 -5.640625 C 5.320312 -5.984375 4.835938 -6.15625 4.234375 -6.15625 C 3.648438 -6.15625 3.164062 -5.984375 2.78125 -5.640625 C 2.394531 -5.304688 2.15625 -4.84375 2.0625 -4.25 Z M 2.0625 -4.25 "/></g></g></g><g fill="#ffffff" fill-opacity="1"><g transform="translate(172.889709, 234.495395)"><g><path d="M 2.84375 0 L 1.25 0 L 1.25 -10.296875 L 2.84375 -10.296875 Z M 2.84375 0 "/></g></g></g><g fill="#ffffff" fill-opacity="1"><g transform="translate(176.982849, 234.495395)"><g/></g></g><g fill="#ffffff" fill-opacity="1"><g transform="translate(180.562618, 234.495395)"><g><path d="M 5.609375 0 L 5.609375 -0.90625 C 5.078125 -0.257812 4.257812 0.0625 3.15625 0.0625 C 2.375 0.0625 1.742188 -0.148438 1.265625 -0.578125 C 0.796875 -1.003906 0.5625 -1.550781 0.5625 -2.21875 C 0.5625 -2.894531 0.804688 -3.429688 1.296875 -3.828125 C 1.796875 -4.222656 2.484375 -4.425781 3.359375 -4.4375 L 5.59375 -4.4375 L 5.59375 -4.65625 C 5.59375 -5.132812 5.441406 -5.5 5.140625 -5.75 C 4.835938 -6.007812 4.398438 -6.140625 3.828125 -6.140625 C 3.117188 -6.140625 2.394531 -5.890625 1.65625 -5.390625 L 1 -6.5 C 1.5625 -6.832031 2.066406 -7.070312 2.515625 -7.21875 C 2.960938 -7.363281 3.515625 -7.4375 4.171875 -7.4375 C 5.117188 -7.4375 5.847656 -7.207031 6.359375 -6.75 C 6.878906 -6.289062 7.144531 -5.65625 7.15625 -4.84375 L 7.171875 0 Z M 3.5 -1.1875 C 4.0625 -1.1875 4.535156 -1.316406 4.921875 -1.578125 C 5.316406 -1.847656 5.539062 -2.1875 5.59375 -2.59375 L 5.59375 -3.28125 L 3.59375 -3.28125 C 3.0625 -3.28125 2.671875 -3.203125 2.421875 -3.046875 C 2.179688 -2.890625 2.0625 -2.640625 2.0625 -2.296875 C 2.0625 -1.960938 2.1875 -1.691406 2.4375 -1.484375 C 2.695312 -1.285156 3.050781 -1.1875 3.5 -1.1875 Z M 3.5 -1.1875 "/></g></g></g><g fill="#ffffff" fill-opacity="1"><g transform="translate(188.693404, 234.495395)"><g><path d="M 5.5 -7.4375 C 6.351562 -7.4375 7.019531 -7.179688 7.5 -6.671875 C 7.988281 -6.171875 8.234375 -5.476562 8.234375 -4.59375 L 8.234375 0 L 6.640625 0 L 6.640625 -4.15625 C 6.640625 -4.707031 6.484375 -5.140625 6.171875 -5.453125 C 5.859375 -5.773438 5.425781 -5.9375 4.875 -5.9375 C 4.28125 -5.925781 3.796875 -5.734375 3.421875 -5.359375 C 3.046875 -4.992188 2.832031 -4.515625 2.78125 -3.921875 L 2.78125 0 L 1.171875 0 L 1.171875 -7.375 L 2.78125 -7.375 L 2.78125 -5.96875 C 3.28125 -6.945312 4.1875 -7.4375 5.5 -7.4375 Z M 5.5 -7.4375 "/></g></g></g><g fill="#ffffff" fill-opacity="1"><g transform="translate(197.892576, 234.495395)"><g><path d="M 8.21875 -10.296875 L 8.21875 0 L 6.625 0 L 6.625 -1.265625 C 6.070312 -0.378906 5.207031 0.0625 4.03125 0.0625 C 2.96875 0.0625 2.109375 -0.285156 1.453125 -0.984375 C 0.804688 -1.679688 0.484375 -2.59375 0.484375 -3.71875 C 0.484375 -4.832031 0.804688 -5.734375 1.453125 -6.421875 C 2.097656 -7.109375 2.945312 -7.453125 4 -7.453125 C 5.175781 -7.453125 6.050781 -7.003906 6.625 -6.109375 L 6.625 -10.296875 Z M 2.71875 -1.9375 C 3.144531 -1.488281 3.691406 -1.265625 4.359375 -1.265625 C 5.023438 -1.265625 5.566406 -1.488281 5.984375 -1.9375 C 6.410156 -2.382812 6.625 -2.957031 6.625 -3.65625 C 6.625 -4.375 6.410156 -4.957031 5.984375 -5.40625 C 5.566406 -5.863281 5.023438 -6.09375 4.359375 -6.09375 C 3.691406 -6.09375 3.144531 -5.863281 2.71875 -5.40625 C 2.300781 -4.957031 2.085938 -4.375 2.078125 -3.65625 C 2.085938 -2.957031 2.300781 -2.382812 2.71875 -1.9375 Z M 2.71875 -1.9375 "/></g></g></g><g fill="#ffffff" fill-opacity="1"><g transform="translate(207.355375, 234.495395)"><g/></g></g><g fill="#ffffff" fill-opacity="1"><g transform="translate(210.935144, 234.495395)"><g><path d="M 7.90625 -8.234375 L 4.828125 -8.234375 L 4.828125 0 L 3.1875 0 L 3.1875 -8.234375 L 0.125 -8.234375 L 0.125 -9.71875 L 7.90625 -9.71875 Z M 7.90625 -8.234375 "/></g></g></g><g fill="#ffffff" fill-opacity="1"><g transform="translate(218.968804, 234.495395)"><g><path d="M 4.34375 -7.4375 C 5.476562 -7.4375 6.398438 -7.09375 7.109375 -6.40625 C 7.828125 -5.71875 8.1875 -4.8125 8.1875 -3.6875 C 8.1875 -2.582031 7.828125 -1.679688 7.109375 -0.984375 C 6.398438 -0.285156 5.476562 0.0625 4.34375 0.0625 C 3.195312 0.0625 2.265625 -0.285156 1.546875 -0.984375 C 0.835938 -1.679688 0.484375 -2.582031 0.484375 -3.6875 C 0.484375 -4.8125 0.835938 -5.71875 1.546875 -6.40625 C 2.265625 -7.09375 3.195312 -7.4375 4.34375 -7.4375 Z M 4.34375 -6.0625 C 3.675781 -6.0625 3.128906 -5.835938 2.703125 -5.390625 C 2.285156 -4.953125 2.078125 -4.378906 2.078125 -3.671875 C 2.078125 -2.960938 2.285156 -2.382812 2.703125 -1.9375 C 3.128906 -1.5 3.675781 -1.28125 4.34375 -1.28125 C 5.007812 -1.28125 5.550781 -1.5 5.96875 -1.9375 C 6.382812 -2.382812 6.59375 -2.960938 6.59375 -3.671875 C 6.59375 -4.378906 6.378906 -4.953125 5.953125 -5.390625 C 5.535156 -5.835938 5 -6.0625 4.34375 -6.0625 Z M 4.34375 -6.0625 "/></g></g></g><g fill="#ffffff" fill-opacity="1"><g transform="translate(227.640724, 234.495395)"><g><path d="M 7.875 -7.375 L 7.875 0 L 6.28125 0 L 6.28125 -1.4375 C 5.800781 -0.457031 4.925781 0.0390625 3.65625 0.0625 C 2.8125 0.0625 2.144531 -0.191406 1.65625 -0.703125 C 1.175781 -1.210938 0.9375 -1.90625 0.9375 -2.78125 L 0.9375 -7.375 L 2.546875 -7.375 L 2.546875 -3.234375 C 2.546875 -2.679688 2.695312 -2.242188 3 -1.921875 C 3.300781 -1.597656 3.722656 -1.4375 4.265625 -1.4375 C 4.878906 -1.445312 5.367188 -1.664062 5.734375 -2.09375 C 6.097656 -2.53125 6.28125 -3.082031 6.28125 -3.75 L 6.28125 -7.375 Z M 7.875 -7.375 "/></g></g></g><g fill="#ffffff" fill-opacity="1"><g transform="translate(236.701137, 234.495395)"><g><path d="M 2.78125 -7.375 L 2.78125 -5.90625 C 3.28125 -6.925781 4.128906 -7.4375 5.328125 -7.4375 L 5.328125 -5.90625 C 4.597656 -5.945312 4.003906 -5.773438 3.546875 -5.390625 C 3.097656 -5.015625 2.84375 -4.503906 2.78125 -3.859375 L 2.78125 0 L 1.171875 0 L 1.171875 -7.375 Z M 2.78125 -7.375 "/></g></g></g><g clip-path="url(#37ec718adb)"><path fill="#ffffff" d="M 200.34375 159.6875 C 200.414062 159.679688 200.503906 159.6875 200.503906 159.6875 L 200.957031 160.152344 C 200.957031 160.152344 200.957031 160.925781 201.074219 161.113281 C 201.191406 161.3125 200.769531 161.964844 200.609375 162.164062 C 200.453125 162.363281 199.960938 162.855469 199.644531 163.015625 C 199.339844 163.175781 199.222656 164.027344 199.222656 164.175781 C 199.222656 164.273438 199.210938 164.480469 199.191406 164.71875 C 198.660156 164.945312 198.140625 165.144531 197.609375 165.34375 C 197.300781 165.363281 196.703125 165.53125 196.574219 165.53125 C 196.417969 165.53125 196.339844 164.453125 196.339844 164.292969 C 196.339844 164.132812 196.445312 163.519531 196.445312 163.363281 C 196.445312 163.203125 197.34375 163.054688 197.34375 163.054688 L 197.953125 162.589844 L 196.878906 162.667969 L 197.027344 162.003906 L 197.527344 161.621094 L 198.265625 161.578125 L 199.300781 160.808594 C 199.300781 160.847656 199.644531 160.191406 199.644531 159.957031 C 199.644531 159.777344 200.109375 159.699219 200.34375 159.6875 Z M 155.945312 152.945312 C 162.363281 162.589844 173.339844 168.949219 185.746094 168.949219 C 197.972656 168.949219 208.742188 162.777344 215.199219 153.371094 C 209.421875 154.429688 203.179688 155.144531 196.800781 155.5 C 196.308594 155.996094 195.824219 156.5 195.375 157.015625 C 195.019531 158.222656 195.226562 159.660156 195.027344 160.964844 C 195.234375 162.621094 193.640625 163.667969 192.214844 164.027344 C 192.015625 165.09375 191.613281 166.09375 191.101562 167.046875 C 189.347656 167.324219 187.574219 167.472656 185.746094 167.472656 C 184.308594 167.472656 182.871094 167.371094 181.472656 167.203125 C 180.339844 165.601562 178.035156 165.105469 177.503906 163.132812 C 177.128906 161.867188 178.390625 160.757812 177.621094 159.648438 C 177.425781 157.964844 176.136719 156.824219 174.777344 155.964844 C 174.847656 155.777344 174.933594 155.589844 175.042969 155.417969 C 168.308594 154.984375 161.820312 154.140625 155.945312 152.945312 Z M 189.792969 133.347656 L 190.066406 133.386719 L 190.214844 133.347656 L 190.441406 133.425781 L 190.332031 133.535156 L 190.136719 133.613281 L 190.015625 133.730469 L 189.832031 133.730469 L 189.671875 133.691406 L 189.554688 133.535156 L 189.484375 133.425781 L 189.554688 133.386719 Z M 177.238281 127.996094 L 177.503906 128.15625 L 177.664062 128.304688 L 177.621094 128.890625 L 177.386719 129.582031 L 176.925781 129.582031 C 176.925781 129.582031 176.894531 129.027344 176.894531 128.929688 L 176.894531 128.265625 Z M 224.828125 121.027344 L 230.300781 127.800781 C 230.300781 127.800781 229.199219 125.621094 229.335938 124.246094 C 237.902344 127.542969 241.367188 131.453125 240.277344 135.207031 C 239.132812 139.128906 232.910156 143.03125 221.558594 145.894531 C 198.859375 151.628906 164.636719 150.714844 145.695312 143.921875 C 137.378906 140.929688 132.984375 137.335938 133.378906 133.851562 C 134.019531 128.046875 140.566406 124.105469 144.664062 122.847656 C 137.949219 124.234375 131.449219 130.640625 131.449219 134.625 C 131.449219 138.605469 135.980469 144.832031 144.664062 147.941406 C 164.402344 155.035156 198.917969 155.914062 222.328125 150.003906 C 234.035156 147.042969 240.835938 140.566406 242.125 136.128906 C 243.375 131.820312 239.25 126.691406 229.917969 123.15625 C 230.980469 122.125 233.304688 121.453125 233.304688 121.453125 Z M 174.15625 115.757812 L 174.886719 115.957031 L 175.082031 116.222656 C 175.082031 116.222656 175.160156 117.324219 175.160156 117.421875 C 175.160156 117.519531 174.769531 118.679688 174.886719 118.898438 C 175.003906 119.113281 175.585938 119.976562 175.585938 119.976562 L 175.773438 120.601562 C 175.773438 120.601562 175.445312 120.945312 175.308594 121.066406 C 175.171875 121.183594 174.15625 121.679688 174.15625 121.679688 L 172.847656 121.066406 L 172.847656 119.90625 L 173.773438 119.046875 L 173.65625 118.816406 C 173.65625 118.816406 172.984375 119.085938 172.925781 119.203125 C 172.867188 119.324219 172.5625 119.976562 172.386719 119.976562 C 172.207031 119.976562 171.726562 119.867188 171.726562 119.867188 C 171.726562 119.867188 171.015625 119.144531 171.117188 119.046875 C 171.214844 118.957031 172.160156 117.5 172.160156 117.5 L 173.3125 117.578125 C 173.3125 117.578125 173.496094 118.234375 173.496094 118.3125 C 173.496094 118.390625 173.734375 118.738281 173.734375 118.738281 L 174.195312 118.699219 C 174.195312 118.699219 173.980469 117.886719 174 117.769531 C 174.019531 117.660156 173.8125 116.570312 173.8125 116.570312 Z M 161.644531 111.6875 L 161.792969 111.847656 L 161.792969 112.003906 L 161.832031 112.964844 C 161.832031 112.964844 161.289062 113.164062 161.289062 113.242188 C 161.289062 113.320312 161.367188 114.054688 161.367188 114.054688 L 160.757812 114.984375 C 160.757812 114.984375 160.058594 114.984375 160.058594 114.90625 C 160.058594 114.828125 159.65625 114.074219 159.792969 113.933594 C 159.933594 113.796875 160.179688 112.894531 160.179688 112.894531 L 159.832031 112.5 L 160.136719 112.003906 L 160.796875 112.074219 L 161.261719 112.152344 Z M 175.082031 110.875 C 175.132812 110.875 175.152344 110.875 175.191406 110.875 C 176.628906 110.855469 177.128906 112.628906 175.625 112.855469 C 174.433594 113.152344 173.644531 111.042969 175.082031 110.875 Z M 187.398438 100.84375 L 187.902344 101.003906 L 189.023438 101.109375 L 189.25 101.933594 L 188.558594 102.585938 L 187.515625 102.238281 C 187.515625 102.238281 186.34375 101.792969 186.285156 101.65625 C 186.226562 101.515625 186.632812 100.921875 186.632812 100.921875 Z M 180.78125 98.714844 C 180.675781 99.496094 181.195312 100.675781 180.824219 101.507812 C 181.511719 102.566406 182.09375 103.902344 181.472656 105.140625 C 179.53125 106.042969 177.621094 107.179688 176.578125 109.132812 C 175.476562 109.417969 174.019531 108.984375 172.886719 108.519531 C 171.726562 109.320312 170.457031 110.042969 169.117188 110.449219 C 166.949219 110.460938 170.023438 106.816406 171.5 106.457031 C 173.359375 106.488281 174.382812 104.816406 175.773438 103.863281 C 177.976562 103.210938 177.808594 101.050781 175.425781 102.320312 C 173.230469 104.0625 170.820312 105.496094 168.300781 106.734375 C 166.824219 107.332031 168.859375 104.644531 169.144531 104.171875 C 169.078125 104.25 168.921875 104.378906 168.683594 104.636719 C 167.90625 105.507812 166.222656 105.875 166.5 107.390625 C 165.878906 108.480469 163.523438 108.648438 164.796875 110.0625 C 164.324219 110.101562 161.96875 108.171875 163.722656 109.757812 C 164.589844 111.617188 161.714844 111.332031 161.605469 109.558594 C 161.308594 109.886719 160.277344 112.074219 159.792969 111.5 C 159.765625 111.152344 159.644531 110.90625 159.449219 110.6875 C 164.746094 104.359375 172.246094 99.953125 180.78125 98.714844 Z M 185.746094 96.890625 C 165.976562 96.890625 149.929688 113.023438 149.929688 132.917969 C 149.929688 136.671875 150.492188 140.277344 151.554688 143.683594 C 155.066406 144.597656 158.917969 145.378906 162.992188 145.972656 C 162.421875 144.792969 161.820312 143.59375 161.988281 142.289062 C 162.332031 140.992188 162.046875 139.613281 162.214844 138.335938 C 162.492188 137.058594 163.257812 136.136719 164.332031 135.433594 C 164.933594 134.445312 166.625 134.542969 166.804688 133.386719 C 167.277344 131.8125 169.292969 129.761719 170.851562 131.363281 C 172.640625 130.632812 174.679688 130.832031 176.578125 130.554688 C 177.949219 130.128906 177.996094 132.207031 177.847656 133.148438 C 179.316406 134 180.664062 135.257812 182.09375 136.019531 C 183.351562 135.820312 183.511719 134.050781 185.015625 135.167969 C 186.90625 136 189.101562 135.742188 190.824219 134.664062 C 192.214844 134.070312 192.390625 130.800781 190.597656 132.335938 C 188.894531 132.285156 186.1875 133.324219 185.359375 130.832031 C 185.132812 128.445312 187.4375 129.671875 188.828125 128.15625 C 190.570312 126.226562 193.5625 129.53125 194.753906 127.066406 C 193.660156 125.847656 191.613281 125.769531 190.015625 125.710938 C 187.683594 125.292969 190.875 125.183594 191.21875 124.394531 C 192.851562 123.097656 190.390625 124.375 189.671875 124.550781 C 189.09375 125.671875 187.476562 125.035156 186.789062 126.097656 C 186.90625 126.710938 186.75 127.246094 186.445312 127.730469 L 186.867188 128.542969 L 185.863281 128.464844 C 185.667969 128.660156 185.488281 128.839844 185.28125 129.007812 C 184.003906 129.503906 186.089844 131.800781 184.476562 132.066406 C 183.058594 132.484375 183.136719 130.660156 182.859375 129.703125 C 183.15625 128.214844 181.421875 128.1875 180.96875 126.949219 C 180.25 126.34375 179.757812 124.382812 178.65625 125.285156 C 179.199219 126.253906 179.984375 127.046875 180.546875 127.996094 C 180.851562 129.105469 182.320312 129.9375 182.320312 130.832031 C 181.246094 129.613281 180.339844 132.472656 179.511719 131.484375 C 178.707031 130.554688 181.738281 131.375 180.625 129.703125 C 179.265625 129.175781 179.089844 127.742188 178.242188 126.71875 C 177.582031 125.679688 176.382812 125.402344 175.347656 126.058594 C 174.019531 126.867188 172.601562 127.839844 172.039062 129.394531 C 172.019531 130.96875 170.21875 130.75 169.421875 129.859375 C 168.429688 129.078125 168.449219 127.789062 169.226562 126.839844 C 169.6875 125.652344 170.378906 124.542969 171.695312 125.523438 C 173.320312 126.273438 173.417969 123.332031 173.617188 122.5 C 175.121094 122.304688 175.722656 120.628906 177.121094 120.136719 C 178.792969 118.066406 179.386719 120.113281 181.394531 119.710938 C 183.019531 120.105469 182.742188 118.421875 183.550781 117.964844 C 185.320312 119.292969 184.445312 115.886719 183.511719 115.984375 C 182.554688 115.191406 185.441406 112.925781 183.785156 113.628906 C 183.136719 114.5 181.746094 114.984375 182.359375 116.300781 C 181.472656 116.9375 182.347656 118.035156 181.207031 118.699219 C 179.671875 119.054688 180.644531 116.066406 179.9375 116.449219 C 178.765625 117.855469 178.578125 116.957031 178.695312 115.597656 C 179.570312 114.210938 181.296875 113.578125 182.199219 112.152344 C 182.871094 111.09375 183.550781 110.222656 184.820312 109.867188 C 185.863281 109.558594 186.9375 110.648438 188.019531 110.796875 C 188.765625 111.203125 191.082031 111.410156 190.597656 110.101562 C 189.339844 109.675781 189.652344 108.25 189.671875 107.203125 C 190.824219 106.25 189.101562 105.222656 190.757812 105.179688 C 191.613281 105.882812 191.574219 107.457031 190.597656 107.933594 C 190.804688 109.695312 194.191406 108.953125 192.644531 107.269531 C 194.636719 106.566406 194.644531 106.152344 193.875 104.289062 C 194.113281 103.457031 188.375 103.816406 191.5625 102.972656 C 192.980469 102.546875 194.988281 103.507812 195.757812 102.398438 C 195.441406 100.992188 197.65625 101.683594 195.53125 100.535156 C 195.265625 100.128906 194.980469 99.804688 194.644531 99.527344 C 208.898438 103.359375 219.484375 116.195312 220.054688 131.601562 C 219.835938 131.214844 219.550781 130.859375 219.285156 130.511719 C 219.019531 129.949219 218.171875 129.085938 217.554688 129.085938 C 217.269531 129.078125 217.050781 129.226562 216.933594 129.703125 C 216.273438 132.769531 215.910156 135.96875 215.78125 139.121094 C 215.683594 140.257812 216.203125 142.058594 214.433594 141.476562 L 212.964844 137.605469 C 212.453125 136.703125 212.472656 134.839844 211.007812 135.554688 C 209.796875 134.027344 207.996094 134.039062 206.3125 135.316406 C 204.84375 136.851562 203.199219 134.464844 201.734375 136.058594 C 200.71875 136.605469 200.1875 134.476562 199.261719 134.503906 C 197.953125 135.207031 200.089844 136.207031 200.375 136.910156 C 200.769531 138.269531 201.300781 135.367188 201.652344 137.445312 C 202.371094 139 203.457031 136.058594 203.878906 136.523438 C 205.90625 137.136719 205.878906 138.941406 204.882812 140.902344 C 203.355469 142.535156 201.652344 143.953125 199.722656 145.082031 C 198.859375 145.515625 197.046875 146.597656 196.996094 144.921875 C 195.363281 143.109375 193.691406 141.257812 192.488281 139.078125 C 191.335938 138.289062 191.042969 135.902344 189.289062 136.59375 C 190.363281 139.503906 192.773438 141.613281 194.183594 144.347656 C 195.15625 145.289062 196.09375 146.496094 197.261719 147.132812 C 197.410156 147.191406 197.539062 147.25 197.6875 147.289062 C 198.511719 147.238281 199.359375 147.160156 200.1875 147.089844 C 200.324219 147.011719 200.484375 146.902344 200.609375 146.785156 C 201.476562 146.488281 202.894531 145.21875 203.347656 145.347656 C 203.425781 145.921875 203.277344 146.429688 203.042969 146.863281 C 208.9375 146.308594 214.582031 145.425781 219.710938 144.230469 C 220.882812 140.675781 221.519531 136.871094 221.519531 132.917969 C 221.519531 113.023438 205.523438 96.890625 185.746094 96.890625 " fill-opacity="1" fill-rule="nonzero"/></g></svg>